<?xml version="1.0" ?><svg viewBox="0 0 100 100" xmlns="http://www.w3.org/2000/svg"><title/><g data-name="Layer 2" id="4a3be5b9-31eb-4d36-9a3d-0477691105e0"><circle cx="50" cy="50" fill="#e6e6e6" r="49.5"/></g><g data-name="Layer 1" id="2b06a717-0e48-448b-a7ad-b7e1eeed7095"><path d="M49.99816,20.94884a2.052,2.052,0,0,1-2.05144-2.05144V15.3982a2.05144,2.05144,0,1,1,4.10288,0v3.4992A2.052,2.052,0,0,1,49.99816,20.94884Z" fill="#ffab80"/><path d="M52.0496,44.65876V70.73227H47.94672V44.65876a2.05144,2.05144,0,1,1,4.10288,0Z" fill="#ffab80"/><path d="M50.75037,18.14044h-.01373c-.424-.01367-.8479-.01367-1.27185-.01367A33.50454,33.50454,0,0,0,16.505,51.25073a28.38806,28.38806,0,0,1,20.55536.95734,22.3588,22.3588,0,0,1,25.87555,0,.94434.94434,0,0,1,.1778-.06842c.01361-.01361.01361-.01361.02734-.01361a28.95021,28.95021,0,0,1,20.364-.86163v-.16412A33.52543,33.52543,0,0,0,50.75037,18.14044Z" fill="#2b687f"/><path d="M63.141,52.126v.08205l-.0273-.06845C63.12734,52.126,63.12734,52.126,63.141,52.126Z" fill="#4d4d4d"/><path d="M62.68977,78.66448a7.33973,7.33973,0,0,1-3.92516,5.744,7.23053,7.23053,0,0,1-3.26856.77956,7.59822,7.59822,0,0,1-3.96615-1.13515,7.34082,7.34082,0,0,1-3.58317-6.1817v-7.139H52.0496v7.05692a3.2511,3.2511,0,0,0,1.62748,2.76263,3.28873,3.28873,0,0,0,3.22758.19149,3.14136,3.14136,0,0,0,1.69584-2.54385,3.366,3.366,0,0,0-1.13507-2.9951,2.05315,2.05315,0,0,1,2.63951-3.14552A7.48855,7.48855,0,0,1,62.68977,78.66448Z" fill="#4d4d4d"/><path d="M63.141,52.126c-.01369,0-.01369,0-.0273.01361a.94689.94689,0,0,0-.1778.06845,22.35873,22.35873,0,0,0-25.87555,0A53.01836,53.01836,0,0,1,49.46477,18.12678c.424,0,.84792,0,1.27188.01369h.01369A53.00269,53.00269,0,0,1,63.141,52.126Z" fill="#10556b"/></g></svg>